# xmcd CD database file
#
# Track frame offsets:
#	150
#	13910
#	25904
#	37426
#	49551
#	61342
#	88521
#	100429
#	112570
#	130743
#	141943
#	166893
#	177796
#	193714
#	209424
#	222633
#	234508
#	247899
#	263056
#	276579
#	289983
#	301857
#	323693
#	333426
#	345118
#
# Disc length: 4850 seconds
#
# Revision: 0
# Processed by: cddbd v1.5.1PL2 Copyright (c) Steve Scherf et al.
# Submitted via: Feurio! 1.68 - http://www.feurio.com
#
DISCID=6f12f019
DTITLE=New Riders Of The Purple Sage - Friend's Of The Devil
DYEAR=1900
DGENRE=Countryrock
TTITLE0=New Riders - I Don't Need no Doctor
TTITLE1=New Riders - It's Alright With Me
TTITLE2=New Riders - Henry
TTITLE3=New Riders - Panama Red
TTITLE4=New Riders - She's Looking Better Every Beer
TTITLE5=New Riders - Willie And The Hand Jive
TTITLE6=New Riders - On Top of Old Smokey
TTITLE7=New Riders - Farewell Angelina
TTITLE8=New Riders - I'm Just A Lonesome LA Cowboy
TTITLE9=New Riders - Kick in the Head
TTITLE10=New Riders - Friend of the Devil
TTITLE11=New Riders - I Don't Know You
TTITLE12=New Riders - Portland Woman
TTITLE13=New Riders - Whiskey
TTITLE14=New Riders - Hello Mary Lou
TTITLE15=New Riders - On Top Of Old Smokey
TTITLE16=New Riders - Glendale Train
TTITLE17=New Riders - Charlie's Garden
TTITLE18=New Riders - Louisiana Lady
TTITLE19=New Riders - You Should Have Seen Me Runnin
TTITLE20=New Riders - Red Hot Woman and Ice Cold Beer
TTITLE21=New Riders - La Bamba
TTITLE22=New Riders - LA Lady
TTITLE23=New Riders - On My Way Back Home
TTITLE24=New Riders - Take A Letter Maria
EXTD=
EXTT0=
EXTT1=
EXTT2=
EXTT3=
EXTT4=
EXTT5=
EXTT6=
EXTT7=
EXTT8=
EXTT9=
EXTT10=
EXTT11=
EXTT12=
EXTT13=
EXTT14=
EXTT15=
EXTT16=
EXTT17=
EXTT18=
EXTT19=
EXTT20=
EXTT21=
EXTT22=
EXTT23=
EXTT24=
PLAYORDER=
